<svg xmlns="http://www.w3.org/2000/svg" width="64" height="64" viewBox="0 0 64 64"><title>behance2</title><path fill="#787878" d="M25.262 28.038c.813-.587 1.2-1.563 1.2-2.913 0-.75-.125-1.363-.387-1.837-.275-.475-.625-.85-1.087-1.113a4.338 4.338 0 0 0-1.55-.563 9.458 9.458 0 0 0-1.813-.163h-6.588v7.475h7.125c1.25.012 2.288-.288 3.1-.887zM26.375 34.788c-.925-.7-2.15-1.05-3.675-1.05h-7.662v8.813h7.513c.7 0 1.35-.063 1.975-.2s1.188-.35 1.663-.675c.475-.313.863-.737 1.15-1.275s.425-1.237.425-2.075c0-1.65-.462-2.825-1.387-3.538z"/><path fill="#787878" d="M58 0H6C2.7 0 0 2.7 0 6v52c0 3.3 2.7 6 6 6h52c3.3 0 6-2.7 6-6V6c0-3.3-2.7-6-6-6zM41.95 16.837h12.962V20H41.95v-3.163zM33.85 42.9a8.217 8.217 0 0 1-2.525 2.9c-1.063.75-2.275 1.3-3.637 1.663-1.35.362-2.75.538-4.175.538H8.001V16.013h15.075c1.525 0 2.913.137 4.175.4 1.25.262 2.325.712 3.225 1.325a6.301 6.301 0 0 1 2.088 2.438c.487 1 .737 2.262.737 3.75 0 1.613-.362 2.95-1.1 4.025s-1.813 1.95-3.262 2.637c1.975.563 3.425 1.562 4.387 2.975.975 1.425 1.45 3.138 1.45 5.138.013 1.638-.3 3.038-.925 4.2zm26.112-4.95H43.25c0 1.825.625 3.563 1.575 4.5.95.925 2.325 1.4 4.112 1.4 1.288 0 2.388-.325 3.325-.975.925-.65 1.487-1.337 1.7-2.05h5.6c-.9 2.788-2.263 4.775-4.125 5.975-1.837 1.2-4.087 1.8-6.7 1.8-1.825 0-3.462-.3-4.938-.875a10.483 10.483 0 0 1-3.737-2.487c-1.013-1.075-1.788-2.362-2.35-3.862-.55-1.487-.837-3.15-.837-4.938 0-1.737.288-3.35.85-4.85.575-1.5 1.375-2.8 2.425-3.875 1.05-1.087 2.3-1.95 3.75-2.587 1.45-.625 3.05-.938 4.825-.938 1.962 0 3.675.375 5.15 1.15 1.462.762 2.663 1.788 3.612 3.075s1.612 2.75 2.038 4.4c.413 1.625.55 3.337.438 5.138z"/><path fill="#787878" d="M48.538 28.988c-1.013 0-1.862.175-2.525.525s-1.2.775-1.612 1.275a4.454 4.454 0 0 0-.85 1.637c-.163.563-.263 1.075-.288 1.525h10.35c-.15-1.625-.712-2.825-1.462-3.663-.775-.85-2.05-1.3-3.612-1.3z"/></svg>